<svg width="408" height="246" viewBox="0 0 408 246" fill="none" xmlns="http://www.w3.org/2000/svg">
<path fill-rule="evenodd" clip-rule="evenodd" d="M189.158 25.5434C175.5 9.89042 155.405 0 133 0C91.8548 0 58.5 33.3548 58.5 74.5C58.5 74.9075 58.5033 75.3142 58.5098 75.7201C25.0491 83.038 0 112.844 0 148.5C0 189.645 33.3548 223 74.5 223C88.4846 223 101.569 219.147 112.75 212.444C126.073 232.659 148.979 246 175 246C201.379 246 224.556 232.29 237.794 211.607C251.378 226.01 270.639 235 292 235C333.145 235 366.5 201.645 366.5 160.5C366.5 157.724 366.348 154.983 366.052 152.285C390.615 140.106 407.5 114.775 407.5 85.5C407.5 44.3548 374.145 11 333 11C313.248 11 295.291 18.6868 281.958 31.2322C268.743 19.2795 251.222 12 232 12C216.053 12 201.276 17.0106 189.158 25.5434Z" fill="#F5EEA9"/>
<path d="M56.4641 155.653C56.4404 151.154 56.3927 146.738 56.3209 142.404C56.3051 140.605 56.2639 138.712 56.1975 136.725C56.1629 134.735 56.0996 132.779 56.0075 130.859C55.9442 128.904 55.8568 127.032 55.7454 125.242C55.6309 123.42 55.5161 121.76 55.401 120.26C56.1654 120.185 56.9759 120.089 57.8326 119.973C58.7212 119.853 59.5143 119.743 60.2118 119.643C60.9411 119.539 61.559 119.446 62.0654 119.364C62.5687 119.251 62.8204 119.194 62.8204 119.194C62.8327 122.922 62.8288 125.994 62.8085 128.407C62.785 130.789 62.7672 132.736 62.7549 134.248C62.7713 135.726 62.7831 137.155 62.7901 138.537C62.829 139.916 62.8426 141.201 62.8309 142.392C62.8192 143.583 62.8062 144.597 62.7919 145.434L63.6518 145.35L66.5072 119.411C67.3639 119.294 68.235 119.161 69.1205 119.009C69.9104 118.868 70.7338 118.739 71.5905 118.622C72.4791 118.503 73.2849 118.359 74.008 118.192C73.6997 119.637 73.3896 121.227 73.0776 122.962C72.7974 124.693 72.4917 126.492 72.1603 128.357C71.8608 130.219 71.5645 132.113 71.2712 134.039C71.0098 135.962 70.7422 137.821 70.4683 139.616C69.8525 143.825 69.2476 148.144 68.6537 152.576L56.4641 155.653ZM79.7311 151.97C79.4445 151.999 78.8759 152.103 78.0254 152.283C77.2036 152.428 76.3532 152.608 75.474 152.822C74.5916 153.006 73.7889 153.181 73.0658 153.348C72.3745 153.513 71.9986 153.614 71.9381 153.652C72.1221 152.251 72.2921 150.707 72.448 149.02C72.6326 147.298 72.8109 145.512 72.9831 143.662C73.152 141.78 73.3035 139.885 73.4375 137.974C73.5716 136.064 73.6959 134.219 73.8106 132.439C74.0792 128.297 74.3368 124.044 74.5835 119.679L81.9185 117.753C81.6049 122.092 81.2995 126.351 81.0022 130.528C80.8875 132.307 80.7632 134.152 80.6292 136.063C80.527 137.97 80.4074 139.862 80.2702 141.741C80.1649 143.616 80.0709 145.442 79.9881 147.219C79.9021 148.963 79.8164 150.547 79.7311 151.97ZM91.0823 151.917C91.5363 147.371 91.9694 142.94 92.3816 138.623C92.5219 136.776 92.6718 134.864 92.8314 132.887C92.9879 130.878 93.1157 128.904 93.2147 126.965C93.3456 125.023 93.4509 123.148 93.5306 121.34C93.639 119.496 93.7009 117.834 93.7163 116.354C94.4519 116.314 95.1254 116.296 95.7368 116.3C96.3768 116.269 97.001 116.24 97.6092 116.213C98.2174 116.185 98.8256 116.158 99.4338 116.13C100.071 116.067 100.755 116 101.488 115.928C101.169 118.243 100.849 120.557 100.53 122.871C100.242 125.182 99.988 127.506 99.7672 129.843L104.445 128.853C104.669 126.548 104.853 124.328 104.997 122.192C105.138 120.023 105.384 117.781 105.735 115.463C106.455 115.264 107.258 115.089 108.143 114.937C109.025 114.754 109.846 114.593 110.604 114.455C111.362 114.316 111.994 114.206 112.5 114.124C113.035 114.007 113.303 113.949 113.303 113.949C112.998 115.425 112.723 117.044 112.478 118.804C112.261 120.53 112.052 122.335 111.852 124.219C111.648 126.072 111.463 127.955 111.297 129.869C111.131 131.782 110.988 133.597 110.867 135.313C110.563 139.426 110.317 143.63 110.127 147.925L102.76 149.517C102.986 147.565 103.169 145.666 103.31 143.82C103.478 142.26 103.64 140.636 103.796 138.949C103.984 137.259 104.115 135.815 104.191 134.618L99.5993 135.503C99.4952 136.735 99.3621 138.162 99.1999 139.786C99.0696 141.407 98.9474 142.946 98.8333 144.404C98.6519 146.158 98.4704 147.912 98.2889 149.666L91.0823 151.917ZM129.263 147.108C128.479 147.313 127.617 147.543 126.677 147.796C125.738 148.049 124.892 148.277 124.14 148.479C124.164 147.416 124.19 146.368 124.217 145.336C124.225 144.435 124.217 143.536 124.194 142.638C124.202 141.737 124.206 140.965 124.207 140.321L120.051 140.729L118.816 147.796C118.125 147.96 117.308 148.153 116.365 148.374C115.419 148.563 114.536 148.747 113.718 148.923C112.711 149.151 111.72 149.377 110.746 149.601C111.604 145.24 112.452 140.945 113.291 136.715C113.631 134.945 113.98 133.094 114.337 131.162C114.726 129.227 115.1 127.309 115.461 125.409C115.849 123.473 116.214 121.621 116.555 119.851C116.896 118.081 117.187 116.461 117.428 114.991C119.578 114.619 121.757 114.212 123.964 113.77C126.203 113.325 128.371 112.807 130.467 112.215C130.472 113.244 130.485 114.529 130.508 116.07C130.56 117.576 130.625 119.225 130.705 121.018C130.784 122.811 130.871 124.683 130.967 126.636C131.062 128.588 131.154 130.508 131.243 132.396C131.515 136.807 131.798 141.489 132.091 146.444C131.152 146.697 130.209 146.919 129.263 147.108ZM120.729 135.84C120.856 135.827 121.079 135.805 121.398 135.774C121.745 135.708 122.094 135.658 122.444 135.623C122.823 135.554 123.172 135.504 123.49 135.472C123.806 135.409 124.025 135.355 124.15 135.311C124.131 135.12 124.115 134.8 124.104 134.351C124.12 133.867 124.117 133.337 124.092 132.76C124.096 132.149 124.096 131.49 124.091 130.783C124.086 130.076 124.082 129.385 124.08 128.71C124.048 127.074 124.036 125.306 124.042 123.409L123.921 119.224L123.209 119.343L122.514 123.559L120.729 135.84ZM132.639 147.789C133.083 143.469 133.505 139.248 133.904 135.125C134.021 133.377 134.165 131.563 134.334 129.681C134.5 127.768 134.637 125.889 134.745 124.046C134.882 122.168 134.996 120.372 135.085 118.659C135.202 116.911 135.272 115.329 135.294 113.912C137.053 113.16 138.971 112.554 141.048 112.093C143.121 111.6 145.193 111.252 147.263 111.049C148.505 110.927 149.539 110.97 150.363 111.179C151.219 111.384 151.897 111.735 152.396 112.233C152.923 112.696 153.317 113.268 153.577 113.95C153.837 114.632 154.009 115.403 154.093 116.262C154.218 117.536 154.119 118.816 153.795 120.102C153.468 121.356 152.977 122.578 152.322 123.767C151.696 124.922 150.935 126.01 150.038 127.03C149.17 128.016 148.207 128.85 147.149 129.532C147.847 130.75 148.59 132.092 149.377 133.558C150.192 134.989 150.954 136.361 151.662 137.674C152.455 139.204 153.264 140.732 154.089 142.259L146.938 145.566C146.101 143.59 145.34 141.735 144.656 140.002C144.361 139.291 144.064 138.565 143.766 137.822C143.465 137.048 143.185 136.32 142.925 135.638C142.665 134.956 142.445 134.351 142.264 133.822C142.081 133.261 141.956 132.807 141.89 132.46L141.287 132.712C141.196 133.75 141.075 134.968 140.922 136.365C140.802 137.76 140.693 139.105 140.595 140.401C140.455 141.926 140.317 143.466 140.181 145.023L132.639 147.789ZM141.83 125.955C142.429 125.832 143.136 125.505 143.952 124.975C144.8 124.441 145.592 123.833 146.329 123.15C147.063 122.435 147.683 121.715 148.191 120.99C148.699 120.265 148.927 119.647 148.877 119.138C148.843 118.787 148.705 118.528 148.463 118.358C148.218 118.157 147.884 118.029 147.461 117.975C147.066 117.885 146.629 117.847 146.148 117.862C145.667 117.877 145.172 117.91 144.662 117.96C144.312 117.994 143.947 118.046 143.568 118.116C143.218 118.15 142.899 118.181 142.613 118.209L141.83 125.955ZM163.386 144.771L166.31 110.192L181.279 107.42C181.125 108.143 181.004 108.878 180.916 109.626C180.817 110.247 180.72 110.899 180.626 111.584C180.561 112.233 180.506 112.817 180.461 113.336C180.145 113.399 179.687 113.477 179.085 113.568C178.512 113.624 177.892 113.701 177.226 113.798C176.558 113.864 175.873 113.931 175.172 114C174.504 114.066 173.914 114.124 173.405 114.174L172.572 122.889C173.553 122.728 174.472 122.59 175.329 122.473C176.026 122.373 176.741 122.286 177.474 122.215C178.206 122.143 178.746 122.074 179.093 122.007C179.054 122.912 179.012 123.8 178.969 124.672C178.958 125.541 178.917 126.43 178.845 127.337C178.53 127.4 178.007 127.484 177.278 127.587C176.577 127.656 175.862 127.742 175.133 127.846C174.308 127.959 173.404 128.08 172.419 128.209L171.658 137.158L178.525 135.375L178.582 140.868L163.386 144.771ZM179.543 143.378C180.048 138.698 180.52 134.166 180.957 129.782C181.094 127.904 181.241 125.96 181.398 123.952C181.586 121.939 181.746 119.962 181.877 118.02C182.004 116.046 182.11 114.171 182.192 112.395C182.272 110.586 182.305 108.959 182.292 107.514C182.709 107.505 183.061 107.486 183.348 107.458C183.634 107.43 183.969 107.397 184.351 107.36C184.797 107.316 185.338 107.263 185.975 107.2C186.609 107.106 187.243 107.011 187.876 106.917C188.51 106.823 189.192 106.724 189.921 106.62C190.586 108.805 191.195 110.916 191.749 112.952C192.277 114.732 192.81 116.561 193.348 118.438C193.918 120.311 194.412 121.902 194.83 123.212C194.895 122.562 194.966 121.816 195.044 120.972C195.119 120.097 195.206 119.188 195.307 118.245C195.407 117.303 195.492 116.362 195.56 115.423C195.658 114.449 195.756 113.491 195.857 112.548C196.099 110.434 196.352 108.255 196.614 106.011L202.371 104.722C201.767 109.701 201.265 114.413 200.865 118.857C200.667 120.774 200.473 122.722 200.281 124.702C200.119 126.647 199.966 128.527 199.822 130.342C199.676 132.125 199.566 133.792 199.493 135.342C199.417 136.861 199.366 138.136 199.338 139.168C199.243 139.177 198.868 139.294 198.215 139.519C197.591 139.709 196.858 139.942 196.017 140.217C195.208 140.489 194.382 140.763 193.541 141.039C192.732 141.311 192.128 141.547 191.73 141.747C191.289 139.218 190.844 136.818 190.396 134.547C190.204 133.569 189.994 132.577 189.766 131.57C189.567 130.529 189.357 129.537 189.136 128.594C188.915 127.651 188.7 126.772 188.492 125.956C188.283 125.141 188.085 124.436 187.898 123.844C187.862 124.458 187.804 125.172 187.723 125.983C187.641 126.795 187.565 127.655 187.493 128.562C187.422 129.469 187.355 130.424 187.292 131.427C187.227 132.398 187.142 133.339 187.039 134.25C186.834 136.424 186.607 138.697 186.358 141.069L179.543 143.378ZM213.071 140.279C213.047 135.78 212.999 131.363 212.927 127.03C212.912 125.231 212.87 123.338 212.804 121.351C212.769 119.361 212.706 117.405 212.614 115.485C212.551 113.53 212.463 111.658 212.352 109.868C212.237 108.046 212.123 106.386 212.008 104.886C212.772 104.811 213.582 104.715 214.439 104.599C215.328 104.479 216.121 104.369 216.818 104.269C217.548 104.165 218.166 104.072 218.672 103.99C219.175 103.877 219.427 103.82 219.427 103.82C219.439 107.548 219.435 110.619 219.415 113.033C219.392 115.415 219.374 117.362 219.361 118.874C219.378 120.352 219.39 121.781 219.397 123.163C219.436 124.542 219.449 125.827 219.437 127.018C219.426 128.209 219.413 129.223 219.398 130.06L220.258 129.976L223.114 104.037C223.97 103.92 224.842 103.787 225.727 103.635C226.517 103.493 227.34 103.364 228.197 103.248C229.086 103.129 229.891 102.985 230.615 102.818C230.306 104.263 229.996 105.853 229.684 107.588C229.404 109.319 229.098 111.118 228.767 112.983C228.467 114.845 228.171 116.739 227.878 118.665C227.616 120.588 227.349 122.447 227.075 124.242C226.459 128.451 225.854 132.77 225.26 137.202L213.071 140.279ZM236.338 136.596C236.051 136.624 235.482 136.729 234.632 136.908C233.81 137.053 232.96 137.233 232.08 137.448C231.198 137.631 230.395 137.807 229.672 137.974C228.981 138.138 228.605 138.24 228.545 138.278C228.729 136.877 228.899 135.333 229.055 133.646C229.239 131.924 229.417 130.138 229.59 128.288C229.759 126.406 229.91 124.511 230.044 122.6C230.178 120.69 230.302 118.845 230.417 117.065C230.686 112.923 230.943 108.67 231.19 104.305L238.525 102.379C238.211 106.718 237.906 110.977 237.609 115.154C237.494 116.933 237.37 118.778 237.236 120.689C237.134 122.596 237.014 124.488 236.877 126.367C236.771 128.242 236.677 130.068 236.595 131.845C236.509 133.589 236.423 135.173 236.338 136.596ZM238.229 137.616C238.735 132.937 239.206 128.405 239.644 124.021C239.781 122.143 239.928 120.199 240.084 118.19C240.273 116.178 240.432 114.201 240.563 112.259C240.691 110.285 240.796 108.41 240.879 106.633C240.959 104.825 240.992 103.198 240.979 101.752C241.396 101.743 241.748 101.725 242.034 101.697C242.321 101.669 242.655 101.636 243.037 101.598C243.483 101.555 244.025 101.501 244.662 101.439C245.295 101.345 245.929 101.25 246.563 101.156C247.197 101.061 247.878 100.962 248.608 100.859C249.273 103.044 249.882 105.155 250.435 107.19C250.964 108.971 251.497 110.8 252.035 112.676C252.605 114.55 253.098 116.141 253.516 117.45C253.581 116.801 253.653 116.054 253.731 115.211C253.805 114.335 253.893 113.426 253.993 112.484C254.094 111.542 254.178 110.601 254.247 109.662C254.344 108.688 254.443 107.729 254.543 106.787C254.786 104.673 255.038 102.494 255.3 100.25L261.058 98.9611C260.454 103.94 259.951 108.652 259.552 113.096C259.354 115.012 259.16 116.961 258.968 118.941C258.805 120.886 258.652 122.766 258.509 124.581C258.362 126.364 258.253 128.03 258.18 129.581C258.104 131.099 258.052 132.375 258.025 133.406C257.929 133.416 257.555 133.533 256.902 133.758C256.277 133.948 255.545 134.18 254.703 134.456C253.894 134.728 253.069 135.002 252.228 135.278C251.419 135.55 250.815 135.786 250.416 135.986C249.975 133.457 249.531 131.057 249.083 128.786C248.89 127.808 248.68 126.816 248.453 125.809C248.254 124.768 248.044 123.775 247.823 122.832C247.602 121.889 247.387 121.01 247.178 120.195C246.969 119.379 246.772 118.675 246.585 118.083C246.549 118.697 246.49 119.41 246.409 120.222C246.328 121.034 246.252 121.893 246.18 122.801C246.108 123.708 246.041 124.663 245.979 125.666C245.914 126.637 245.829 127.578 245.726 128.488C245.521 130.663 245.294 132.936 245.044 135.308L238.229 137.616ZM259.829 135.496C260.334 130.816 260.805 126.285 261.243 121.901C261.38 120.022 261.527 118.079 261.684 116.07C261.872 114.058 262.032 112.081 262.162 110.139C262.29 108.165 262.396 106.289 262.478 104.513C262.558 102.704 262.591 101.077 262.578 99.6318C262.995 99.623 263.347 99.6046 263.634 99.5764C263.92 99.5483 264.255 99.5155 264.637 99.4779C265.083 99.4342 265.624 99.381 266.261 99.3185C266.895 99.2241 267.529 99.1297 268.162 99.0354C268.796 98.941 269.478 98.8419 270.207 98.7382C270.872 100.924 271.481 103.034 272.035 105.07C272.563 106.851 273.096 108.679 273.634 110.556C274.204 112.429 274.698 114.021 275.116 115.33C275.181 114.681 275.252 113.934 275.33 113.09C275.405 112.215 275.492 111.306 275.593 110.364C275.693 109.421 275.778 108.481 275.846 107.541C275.943 106.567 276.042 105.609 276.143 104.667C276.385 102.553 276.638 100.374 276.9 98.1294L282.657 96.8407C282.053 101.82 281.551 106.531 281.151 110.975C280.953 112.892 280.759 114.84 280.567 116.82C280.405 118.766 280.252 120.646 280.108 122.46C279.962 124.243 279.852 125.91 279.779 127.46C279.703 128.979 279.651 130.254 279.624 131.286C279.529 131.295 279.154 131.412 278.501 131.637C277.877 131.827 277.144 132.06 276.303 132.335C275.494 132.608 274.668 132.882 273.827 133.157C273.018 133.43 272.414 133.666 272.016 133.866C271.575 131.337 271.13 128.936 270.682 126.665C270.489 125.688 270.28 124.695 270.052 123.689C269.853 122.647 269.643 121.655 269.422 120.712C269.201 119.769 268.986 118.89 268.777 118.074C268.569 117.259 268.371 116.555 268.184 115.962C268.148 116.577 268.09 117.29 268.008 118.102C267.927 118.913 267.851 119.773 267.779 120.68C267.708 121.588 267.641 122.543 267.578 123.546C267.513 124.517 267.428 125.457 267.325 126.368C267.12 128.542 266.893 130.815 266.644 133.187L259.829 135.496ZM298.651 130.479C297.868 130.685 297.006 130.914 296.066 131.167C295.127 131.42 294.281 131.648 293.529 131.85C293.553 130.787 293.579 129.739 293.606 128.707C293.614 127.806 293.606 126.907 293.582 126.009C293.59 125.108 293.595 124.336 293.596 123.692L289.44 124.1L288.205 131.167C287.513 131.331 286.696 131.524 285.753 131.745C284.807 131.935 283.925 132.118 283.106 132.294C282.1 132.522 281.109 132.748 280.134 132.972C280.992 128.611 281.841 124.316 282.68 120.086C283.02 118.316 283.369 116.465 283.726 114.533C284.115 112.598 284.489 110.68 284.849 108.78C285.238 106.844 285.603 104.992 285.944 103.222C286.284 101.452 286.575 99.8322 286.817 98.3616C288.967 97.9898 291.146 97.5829 293.353 97.1412C295.592 96.6963 297.76 96.178 299.856 95.5864C299.861 96.6148 299.874 97.8997 299.897 99.4408C299.948 100.947 300.014 102.596 300.093 104.389C300.173 106.182 300.26 108.055 300.355 110.007C300.451 111.959 300.543 113.879 300.632 115.767C300.904 120.178 301.187 124.86 301.48 129.815C300.54 130.068 299.597 130.29 298.651 130.479ZM290.118 119.211C290.245 119.198 290.468 119.176 290.786 119.145C291.134 119.079 291.482 119.029 291.833 118.994C292.212 118.925 292.561 118.875 292.879 118.843C293.194 118.78 293.414 118.726 293.538 118.682C293.52 118.491 293.504 118.171 293.492 117.722C293.509 117.238 293.505 116.708 293.481 116.132C293.485 115.52 293.485 114.861 293.48 114.154C293.475 113.447 293.471 112.756 293.469 112.081C293.437 110.445 293.424 108.677 293.431 106.78L293.31 102.595L292.598 102.714L291.902 106.93L290.118 119.211ZM302.028 131.16C302.472 126.84 302.893 122.619 303.293 118.496C303.41 116.748 303.554 114.934 303.723 113.052C303.889 111.139 304.026 109.26 304.134 107.417C304.271 105.539 304.384 103.743 304.473 102.03C304.591 100.282 304.661 98.6998 304.683 97.2829C306.442 96.5315 308.36 95.9252 310.436 95.4641C312.51 94.9711 314.582 94.623 316.652 94.4198C317.894 94.2979 318.927 94.3411 319.752 94.5496C320.608 94.7549 321.285 95.1064 321.784 95.604C322.312 96.0667 322.706 96.639 322.966 97.3208C323.226 98.0027 323.398 98.7736 323.482 99.6334C323.607 100.907 323.508 102.187 323.184 103.473C322.857 104.727 322.366 105.949 321.711 107.138C321.085 108.293 320.323 109.381 319.427 110.401C318.559 111.387 317.596 112.221 316.537 112.903C317.236 114.121 317.978 115.463 318.765 116.929C319.581 118.36 320.343 119.732 321.051 121.045C321.844 122.575 322.653 124.104 323.478 125.63L316.327 128.937C315.49 126.961 314.729 125.107 314.044 123.373C313.75 122.663 313.453 121.936 313.155 121.194C312.854 120.419 312.574 119.691 312.314 119.009C312.054 118.327 311.834 117.722 311.653 117.193C311.47 116.632 311.345 116.178 311.278 115.831L310.676 116.083C310.585 117.121 310.463 118.339 310.311 119.736C310.191 121.131 310.082 122.476 309.984 123.772C309.844 125.297 309.706 126.838 309.57 128.394L302.028 131.16ZM311.219 109.326C311.817 109.203 312.525 108.876 313.341 108.346C314.189 107.813 314.981 107.204 315.718 106.521C316.452 105.806 317.072 105.086 317.58 104.361C318.087 103.636 318.316 103.018 318.266 102.509C318.232 102.158 318.094 101.899 317.852 101.73C317.607 101.528 317.273 101.401 316.85 101.346C316.455 101.256 316.017 101.218 315.537 101.233C315.056 101.248 314.561 101.281 314.051 101.331C313.701 101.365 313.336 101.417 312.957 101.487C312.607 101.521 312.288 101.552 312.002 101.58L311.219 109.326ZM323.445 129.058L326.369 94.4788L341.337 91.7071C341.183 92.4296 341.062 93.1649 340.975 93.913C340.875 94.5337 340.779 95.1863 340.685 95.8707C340.62 96.5202 340.565 97.1044 340.519 97.6233C340.204 97.6864 339.745 97.7636 339.144 97.8548C338.57 97.9111 337.951 97.988 337.285 98.0855C336.616 98.1511 335.932 98.2184 335.231 98.2871C334.562 98.3528 333.973 98.4106 333.464 98.4607L332.631 107.176C333.612 107.015 334.531 106.877 335.388 106.76C336.085 106.66 336.8 106.573 337.533 106.502C338.265 106.43 338.805 106.361 339.152 106.294C339.112 107.199 339.071 108.087 339.028 108.959C339.017 109.828 338.975 110.717 338.904 111.624C338.588 111.687 338.066 111.771 337.337 111.874C336.636 111.943 335.921 112.029 335.192 112.133C334.367 112.246 333.462 112.367 332.478 112.496L331.717 121.445L338.583 119.662L338.64 125.155L323.445 129.058ZM347.877 115.18C346.954 115.271 346.033 115.394 345.116 115.548C344.199 115.702 343.281 115.857 342.364 116.011C342.967 111.997 343.539 108.002 344.081 104.026C344.655 100.047 345.26 96.0486 345.894 92.0314C346.49 91.8765 347.165 91.7137 347.92 91.5431C348.707 91.3694 349.492 91.1798 350.276 90.9743C351.06 90.7687 351.813 90.5822 352.536 90.4148C353.291 90.2442 353.919 90.0861 354.419 89.9406C353.093 94.1221 351.914 98.3214 350.881 102.539C349.876 106.721 348.875 110.935 347.877 115.18ZM349.091 122.633C349.151 123.239 349.067 123.858 348.84 124.491C348.644 125.121 348.315 125.7 347.853 126.228C347.387 126.724 346.784 127.136 346.045 127.466C345.309 127.828 344.447 128.057 343.46 128.154C342.791 128.22 342.173 128.152 341.607 127.95C341.041 127.748 340.562 127.458 340.171 127.078C339.809 126.664 339.505 126.195 339.261 125.672C339.017 125.15 338.868 124.618 338.815 124.076C338.756 123.471 338.795 122.889 338.933 122.328C339.068 121.736 339.306 121.215 339.647 120.763C340.018 120.277 340.475 119.862 341.02 119.519C341.597 119.173 342.3 118.959 343.128 118.878C344.975 118.697 346.404 119.007 347.415 119.808C348.423 120.577 348.982 121.519 349.091 122.633Z" fill="black"/>
</svg>
